<svg width="200" height="200" viewBox="0 0 200 200" fill="none" xmlns="http://www.w3.org/2000/svg">
<circle cx="73.8321" cy="4.6729" r="4.6729" fill="#3A9494"/>
<ellipse cx="91.5889" cy="4.6729" rx="3.73832" ry="4.6729" fill="#3A9494"/>
<ellipse cx="108.411" cy="4.6729" rx="3.73832" ry="4.6729" fill="#3A9494"/>
<circle cx="126.168" cy="4.6729" r="4.6729" fill="#3A9494"/>
<circle cx="73.8321" cy="21.4953" r="4.6729" fill="#3A9494"/>
<ellipse cx="91.5889" cy="21.4953" rx="3.73832" ry="4.6729" fill="#3A9494"/>
<ellipse cx="108.411" cy="21.4953" rx="3.73832" ry="4.6729" fill="#3A9494"/>
<circle cx="126.168" cy="21.4953" r="4.6729" fill="#3A9494"/>
<ellipse cx="73.8321" cy="39.2524" rx="4.6729" ry="3.73832" fill="#3A9494"/>
<circle cx="91.5889" cy="39.2524" r="3.73832" fill="#3A9494"/>
<circle cx="108.411" cy="39.2524" r="3.73832" fill="#3A9494"/>
<ellipse cx="126.168" cy="39.2524" rx="4.6729" ry="3.73832" fill="#3A9494"/>
<circle cx="73.8321" cy="57.0093" r="4.6729" fill="#3A9494"/>
<ellipse cx="91.5889" cy="57.0093" rx="3.73832" ry="4.6729" fill="#3A9494"/>
<ellipse cx="108.411" cy="57.0093" rx="3.73832" ry="4.6729" fill="#3A9494"/>
<circle cx="126.168" cy="57.0093" r="4.6729" fill="#3A9494"/>
<circle cx="73.8321" cy="73.8318" r="4.6729" fill="#3A9494"/>
<ellipse cx="91.5889" cy="73.8318" rx="3.73832" ry="4.6729" fill="#3A9494"/>
<ellipse cx="108.411" cy="73.8318" rx="3.73832" ry="4.6729" fill="#3A9494"/>
<circle cx="126.168" cy="73.8318" r="4.6729" fill="#3A9494"/>
<ellipse cx="73.8321" cy="91.5888" rx="4.6729" ry="3.73832" fill="#3A9494"/>
<circle cx="91.5889" cy="91.5888" r="3.73832" fill="#3A9494"/>
<circle cx="108.411" cy="91.5888" r="3.73832" fill="#3A9494"/>
<ellipse cx="126.168" cy="91.5888" rx="4.6729" ry="3.73832" fill="#3A9494"/>
<ellipse cx="73.8321" cy="108.411" rx="4.6729" ry="3.73832" fill="#3A9494"/>
<circle cx="91.5889" cy="108.411" r="3.73832" fill="#3A9494"/>
<circle cx="108.411" cy="108.411" r="3.73832" fill="#3A9494"/>
<ellipse cx="126.168" cy="108.411" rx="4.6729" ry="3.73832" fill="#3A9494"/>
<circle cx="73.8321" cy="126.168" r="4.6729" fill="#3A9494"/>
<ellipse cx="91.5889" cy="126.168" rx="3.73832" ry="4.6729" fill="#3A9494"/>
<ellipse cx="108.411" cy="126.168" rx="3.73832" ry="4.6729" fill="#3A9494"/>
<circle cx="126.168" cy="126.168" r="4.6729" fill="#3A9494"/>
<circle cx="73.8321" cy="142.991" r="4.6729" fill="#3A9494"/>
<ellipse cx="91.5889" cy="142.991" rx="3.73832" ry="4.6729" fill="#3A9494"/>
<ellipse cx="108.411" cy="142.991" rx="3.73832" ry="4.6729" fill="#3A9494"/>
<circle cx="126.168" cy="142.991" r="4.6729" fill="#3A9494"/>
<ellipse cx="73.8321" cy="160.748" rx="4.6729" ry="3.73832" fill="#3A9494"/>
<circle cx="91.5889" cy="160.748" r="3.73832" fill="#3A9494"/>
<circle cx="108.411" cy="160.748" r="3.73832" fill="#3A9494"/>
<ellipse cx="126.168" cy="160.748" rx="4.6729" ry="3.73832" fill="#3A9494"/>
<circle cx="73.8321" cy="178.505" r="4.6729" fill="#3A9494"/>
<ellipse cx="91.5889" cy="178.505" rx="3.73832" ry="4.6729" fill="#3A9494"/>
<ellipse cx="108.411" cy="178.505" rx="3.73832" ry="4.6729" fill="#3A9494"/>
<circle cx="126.168" cy="178.505" r="4.6729" fill="#3A9494"/>
<circle cx="73.8321" cy="195.327" r="4.6729" fill="#3A9494"/>
<ellipse cx="91.5889" cy="195.327" rx="3.73832" ry="4.6729" fill="#3A9494"/>
<ellipse cx="108.411" cy="195.327" rx="3.73832" ry="4.6729" fill="#3A9494"/>
<circle cx="126.168" cy="195.327" r="4.6729" fill="#3A9494"/>
<circle cx="142.99" cy="73.8318" r="4.6729" fill="#3A9494"/>
<ellipse cx="160.748" cy="73.8318" rx="3.73832" ry="4.6729" fill="#3A9494"/>
<circle cx="178.505" cy="73.8318" r="4.6729" fill="#3A9494"/>
<circle cx="195.327" cy="73.8318" r="4.6729" fill="#3A9494"/>
<ellipse cx="142.99" cy="91.5888" rx="4.6729" ry="3.73832" fill="#3A9494"/>
<circle cx="160.748" cy="91.5888" r="3.73832" fill="#3A9494"/>
<ellipse cx="178.505" cy="91.5888" rx="4.6729" ry="3.73832" fill="#3A9494"/>
<ellipse cx="195.327" cy="91.5888" rx="4.6729" ry="3.73832" fill="#3A9494"/>
<ellipse cx="142.99" cy="108.411" rx="4.6729" ry="3.73832" fill="#3A9494"/>
<circle cx="160.748" cy="108.411" r="3.73832" fill="#3A9494"/>
<ellipse cx="178.505" cy="108.411" rx="4.6729" ry="3.73832" fill="#3A9494"/>
<ellipse cx="195.327" cy="108.411" rx="4.6729" ry="3.73832" fill="#3A9494"/>
<circle cx="142.99" cy="126.168" r="4.6729" fill="#3A9494"/>
<ellipse cx="160.748" cy="126.168" rx="3.73832" ry="4.6729" fill="#3A9494"/>
<circle cx="178.505" cy="126.168" r="4.6729" fill="#3A9494"/>
<circle cx="195.327" cy="126.168" r="4.6729" fill="#3A9494"/>
<circle cx="4.6729" cy="73.8318" r="4.6729" fill="#3A9494"/>
<circle cx="21.4952" cy="73.8318" r="4.6729" fill="#3A9494"/>
<ellipse cx="39.252" cy="73.8318" rx="3.73832" ry="4.6729" fill="#3A9494"/>
<circle cx="57.0098" cy="73.8318" r="4.6729" fill="#3A9494"/>
<ellipse cx="4.6729" cy="91.5888" rx="4.6729" ry="3.73832" fill="#3A9494"/>
<ellipse cx="21.4952" cy="91.5888" rx="4.6729" ry="3.73832" fill="#3A9494"/>
<circle cx="39.252" cy="91.5888" r="3.73832" fill="#3A9494"/>
<ellipse cx="57.0098" cy="91.5888" rx="4.6729" ry="3.73832" fill="#3A9494"/>
<ellipse cx="4.6729" cy="108.411" rx="4.6729" ry="3.73832" fill="#3A9494"/>
<ellipse cx="21.4952" cy="108.411" rx="4.6729" ry="3.73832" fill="#3A9494"/>
<circle cx="39.252" cy="108.411" r="3.73832" fill="#3A9494"/>
<ellipse cx="57.0098" cy="108.411" rx="4.6729" ry="3.73832" fill="#3A9494"/>
<circle cx="4.6729" cy="126.168" r="4.6729" fill="#3A9494"/>
<circle cx="21.4952" cy="126.168" r="4.6729" fill="#3A9494"/>
<ellipse cx="39.252" cy="126.168" rx="3.73832" ry="4.6729" fill="#3A9494"/>
<circle cx="57.0098" cy="126.168" r="4.6729" fill="#3A9494"/>
</svg>
