<svg width="90" height="90" viewBox="0 0 90 90" fill="none" xmlns="http://www.w3.org/2000/svg">
<circle cx="33.2243" cy="2.1028" r="2.1028" fill="white"/>
<ellipse cx="41.215" cy="2.1028" rx="1.68224" ry="2.1028" fill="white"/>
<ellipse cx="48.785" cy="2.1028" rx="1.68224" ry="2.1028" fill="white"/>
<circle cx="56.7757" cy="2.1028" r="2.1028" fill="white"/>
<circle cx="33.2243" cy="9.67263" r="2.1028" fill="white"/>
<ellipse cx="41.215" cy="9.67263" rx="1.68224" ry="2.1028" fill="white"/>
<ellipse cx="48.785" cy="9.67263" rx="1.68224" ry="2.1028" fill="white"/>
<circle cx="56.7757" cy="9.67263" r="2.1028" fill="white"/>
<ellipse cx="33.2243" cy="17.6637" rx="2.1028" ry="1.68224" fill="white"/>
<circle cx="41.215" cy="17.6637" r="1.68224" fill="white"/>
<circle cx="48.785" cy="17.6637" r="1.68224" fill="white"/>
<ellipse cx="56.7757" cy="17.6637" rx="2.1028" ry="1.68224" fill="white"/>
<circle cx="33.2243" cy="25.6541" r="2.1028" fill="white"/>
<ellipse cx="41.215" cy="25.6541" rx="1.68224" ry="2.1028" fill="white"/>
<ellipse cx="48.785" cy="25.6541" rx="1.68224" ry="2.1028" fill="white"/>
<circle cx="56.7757" cy="25.6541" r="2.1028" fill="white"/>
<circle cx="33.2243" cy="33.2244" r="2.1028" fill="white"/>
<ellipse cx="41.215" cy="33.2244" rx="1.68224" ry="2.1028" fill="white"/>
<ellipse cx="48.785" cy="33.2244" rx="1.68224" ry="2.1028" fill="white"/>
<circle cx="56.7757" cy="33.2244" r="2.1028" fill="white"/>
<ellipse cx="33.2243" cy="41.215" rx="2.1028" ry="1.68224" fill="white"/>
<circle cx="41.215" cy="41.215" r="1.68224" fill="white"/>
<circle cx="48.785" cy="41.215" r="1.68224" fill="white"/>
<ellipse cx="56.7757" cy="41.215" rx="2.1028" ry="1.68224" fill="white"/>
<ellipse cx="33.2243" cy="48.7848" rx="2.1028" ry="1.68224" fill="white"/>
<circle cx="41.215" cy="48.7848" r="1.68224" fill="white"/>
<circle cx="48.785" cy="48.7848" r="1.68224" fill="white"/>
<ellipse cx="56.7757" cy="48.7848" rx="2.1028" ry="1.68224" fill="white"/>
<circle cx="33.2243" cy="56.7757" r="2.1028" fill="white"/>
<ellipse cx="41.215" cy="56.7757" rx="1.68224" ry="2.1028" fill="white"/>
<ellipse cx="48.785" cy="56.7757" rx="1.68224" ry="2.1028" fill="white"/>
<circle cx="56.7757" cy="56.7757" r="2.1028" fill="white"/>
<circle cx="33.2243" cy="64.3455" r="2.1028" fill="white"/>
<ellipse cx="41.215" cy="64.3455" rx="1.68224" ry="2.1028" fill="white"/>
<ellipse cx="48.785" cy="64.3455" rx="1.68224" ry="2.1028" fill="white"/>
<circle cx="56.7757" cy="64.3455" r="2.1028" fill="white"/>
<ellipse cx="33.2243" cy="72.3361" rx="2.1028" ry="1.68224" fill="white"/>
<circle cx="41.215" cy="72.3361" r="1.68224" fill="white"/>
<circle cx="48.785" cy="72.3361" r="1.68224" fill="white"/>
<ellipse cx="56.7757" cy="72.3361" rx="2.1028" ry="1.68224" fill="white"/>
<circle cx="33.2243" cy="80.3269" r="2.1028" fill="white"/>
<ellipse cx="41.215" cy="80.3269" rx="1.68224" ry="2.1028" fill="white"/>
<ellipse cx="48.785" cy="80.3269" rx="1.68224" ry="2.1028" fill="white"/>
<circle cx="56.7757" cy="80.3269" r="2.1028" fill="white"/>
<circle cx="33.2243" cy="87.8972" r="2.1028" fill="white"/>
<ellipse cx="41.215" cy="87.8972" rx="1.68224" ry="2.1028" fill="white"/>
<ellipse cx="48.785" cy="87.8972" rx="1.68224" ry="2.1028" fill="white"/>
<circle cx="56.7757" cy="87.8972" r="2.1028" fill="white"/>
<circle cx="64.3457" cy="33.2244" r="2.1028" fill="white"/>
<ellipse cx="72.3364" cy="33.2244" rx="1.68224" ry="2.1028" fill="white"/>
<circle cx="80.3272" cy="33.2244" r="2.1028" fill="white"/>
<circle cx="87.8972" cy="33.2244" r="2.1028" fill="white"/>
<ellipse cx="64.3457" cy="41.215" rx="2.1028" ry="1.68224" fill="white"/>
<circle cx="72.3364" cy="41.215" r="1.68224" fill="white"/>
<ellipse cx="80.3272" cy="41.215" rx="2.1028" ry="1.68224" fill="white"/>
<ellipse cx="87.8972" cy="41.215" rx="2.1028" ry="1.68224" fill="white"/>
<ellipse cx="64.3457" cy="48.7848" rx="2.1028" ry="1.68224" fill="white"/>
<circle cx="72.3364" cy="48.7848" r="1.68224" fill="white"/>
<ellipse cx="80.3272" cy="48.7848" rx="2.1028" ry="1.68224" fill="white"/>
<ellipse cx="87.8972" cy="48.7848" rx="2.1028" ry="1.68224" fill="white"/>
<circle cx="64.3457" cy="56.7757" r="2.1028" fill="white"/>
<ellipse cx="72.3364" cy="56.7757" rx="1.68224" ry="2.1028" fill="white"/>
<circle cx="80.3272" cy="56.7757" r="2.1028" fill="white"/>
<circle cx="87.8972" cy="56.7757" r="2.1028" fill="white"/>
<circle cx="2.1028" cy="33.2244" r="2.1028" fill="white"/>
<circle cx="9.67287" cy="33.2244" r="2.1028" fill="white"/>
<ellipse cx="17.6636" cy="33.2244" rx="1.68224" ry="2.1028" fill="white"/>
<circle cx="25.6542" cy="33.2244" r="2.1028" fill="white"/>
<ellipse cx="2.1028" cy="41.215" rx="2.1028" ry="1.68224" fill="white"/>
<ellipse cx="9.67287" cy="41.215" rx="2.1028" ry="1.68224" fill="white"/>
<circle cx="17.6636" cy="41.215" r="1.68224" fill="white"/>
<ellipse cx="25.6542" cy="41.215" rx="2.1028" ry="1.68224" fill="white"/>
<ellipse cx="2.1028" cy="48.7848" rx="2.1028" ry="1.68224" fill="white"/>
<ellipse cx="9.67287" cy="48.7848" rx="2.1028" ry="1.68224" fill="white"/>
<circle cx="17.6636" cy="48.7848" r="1.68224" fill="white"/>
<ellipse cx="25.6542" cy="48.7848" rx="2.1028" ry="1.68224" fill="white"/>
<circle cx="2.1028" cy="56.7757" r="2.1028" fill="white"/>
<circle cx="9.67287" cy="56.7757" r="2.1028" fill="white"/>
<ellipse cx="17.6636" cy="56.7757" rx="1.68224" ry="2.1028" fill="white"/>
<circle cx="25.6542" cy="56.7757" r="2.1028" fill="white"/>
</svg>
