<svg width="107" height="107" viewBox="0 0 107 107" fill="none" xmlns="http://www.w3.org/2000/svg">
<circle cx="39.5" cy="2.5" r="2.5" fill="#3A9494"/>
<ellipse cx="49" cy="2.5" rx="2" ry="2.5" fill="#3A9494"/>
<ellipse cx="58" cy="2.5" rx="2" ry="2.5" fill="#3A9494"/>
<circle cx="67.5" cy="2.5" r="2.5" fill="#3A9494"/>
<circle cx="39.5" cy="11.5" r="2.5" fill="#3A9494"/>
<ellipse cx="49" cy="11.5" rx="2" ry="2.5" fill="#3A9494"/>
<ellipse cx="58" cy="11.5" rx="2" ry="2.5" fill="#3A9494"/>
<circle cx="67.5" cy="11.5" r="2.5" fill="#3A9494"/>
<ellipse cx="39.5" cy="21" rx="2.5" ry="2" fill="#3A9494"/>
<circle cx="49" cy="21" r="2" fill="#3A9494"/>
<circle cx="58" cy="21" r="2" fill="#3A9494"/>
<ellipse cx="67.5" cy="21" rx="2.5" ry="2" fill="#3A9494"/>
<circle cx="39.5" cy="30.5" r="2.5" fill="#3A9494"/>
<ellipse cx="49" cy="30.5" rx="2" ry="2.5" fill="#3A9494"/>
<ellipse cx="58" cy="30.5" rx="2" ry="2.5" fill="#3A9494"/>
<circle cx="67.5" cy="30.5" r="2.5" fill="#3A9494"/>
<circle cx="39.5" cy="39.5" r="2.5" fill="#3A9494"/>
<ellipse cx="49" cy="39.5" rx="2" ry="2.5" fill="#3A9494"/>
<ellipse cx="58" cy="39.5" rx="2" ry="2.5" fill="#3A9494"/>
<circle cx="67.5" cy="39.5" r="2.5" fill="#3A9494"/>
<ellipse cx="39.5" cy="49" rx="2.5" ry="2" fill="#3A9494"/>
<circle cx="49" cy="49" r="2" fill="#3A9494"/>
<circle cx="58" cy="49" r="2" fill="#3A9494"/>
<ellipse cx="67.5" cy="49" rx="2.5" ry="2" fill="#3A9494"/>
<ellipse cx="39.5" cy="58" rx="2.5" ry="2" fill="#3A9494"/>
<circle cx="49" cy="58" r="2" fill="#3A9494"/>
<circle cx="58" cy="58" r="2" fill="#3A9494"/>
<ellipse cx="67.5" cy="58" rx="2.5" ry="2" fill="#3A9494"/>
<circle cx="39.5" cy="67.5" r="2.5" fill="#3A9494"/>
<ellipse cx="49" cy="67.5" rx="2" ry="2.5" fill="#3A9494"/>
<ellipse cx="58" cy="67.5" rx="2" ry="2.5" fill="#3A9494"/>
<circle cx="67.5" cy="67.5" r="2.5" fill="#3A9494"/>
<circle cx="39.5" cy="76.5" r="2.5" fill="#3A9494"/>
<ellipse cx="49" cy="76.5" rx="2" ry="2.5" fill="#3A9494"/>
<ellipse cx="58" cy="76.5" rx="2" ry="2.5" fill="#3A9494"/>
<circle cx="67.5" cy="76.5" r="2.5" fill="#3A9494"/>
<ellipse cx="39.5" cy="86" rx="2.5" ry="2" fill="#3A9494"/>
<circle cx="49" cy="86" r="2" fill="#3A9494"/>
<circle cx="58" cy="86" r="2" fill="#3A9494"/>
<ellipse cx="67.5" cy="86" rx="2.5" ry="2" fill="#3A9494"/>
<circle cx="39.5" cy="95.5" r="2.5" fill="#3A9494"/>
<ellipse cx="49" cy="95.5" rx="2" ry="2.5" fill="#3A9494"/>
<ellipse cx="58" cy="95.5" rx="2" ry="2.5" fill="#3A9494"/>
<circle cx="67.5" cy="95.5" r="2.5" fill="#3A9494"/>
<circle cx="39.5" cy="104.5" r="2.5" fill="#3A9494"/>
<ellipse cx="49" cy="104.5" rx="2" ry="2.5" fill="#3A9494"/>
<ellipse cx="58" cy="104.5" rx="2" ry="2.5" fill="#3A9494"/>
<circle cx="67.5" cy="104.5" r="2.5" fill="#3A9494"/>
<circle cx="76.5" cy="39.5" r="2.5" fill="#3A9494"/>
<ellipse cx="86" cy="39.5" rx="2" ry="2.5" fill="#3A9494"/>
<circle cx="95.5" cy="39.5" r="2.5" fill="#3A9494"/>
<circle cx="104.5" cy="39.5" r="2.5" fill="#3A9494"/>
<ellipse cx="76.5" cy="49" rx="2.5" ry="2" fill="#3A9494"/>
<circle cx="86" cy="49" r="2" fill="#3A9494"/>
<ellipse cx="95.5" cy="49" rx="2.5" ry="2" fill="#3A9494"/>
<ellipse cx="104.5" cy="49" rx="2.5" ry="2" fill="#3A9494"/>
<ellipse cx="76.5" cy="58" rx="2.5" ry="2" fill="#3A9494"/>
<circle cx="86" cy="58" r="2" fill="#3A9494"/>
<ellipse cx="95.5" cy="58" rx="2.5" ry="2" fill="#3A9494"/>
<ellipse cx="104.5" cy="58" rx="2.5" ry="2" fill="#3A9494"/>
<circle cx="76.5" cy="67.5" r="2.5" fill="#3A9494"/>
<ellipse cx="86" cy="67.5" rx="2" ry="2.5" fill="#3A9494"/>
<circle cx="95.5" cy="67.5" r="2.5" fill="#3A9494"/>
<circle cx="104.5" cy="67.5" r="2.5" fill="#3A9494"/>
<circle cx="2.5" cy="39.5" r="2.5" fill="#3A9494"/>
<circle cx="11.5" cy="39.5" r="2.5" fill="#3A9494"/>
<ellipse cx="21" cy="39.5" rx="2" ry="2.5" fill="#3A9494"/>
<circle cx="30.5" cy="39.5" r="2.5" fill="#3A9494"/>
<ellipse cx="2.5" cy="49" rx="2.5" ry="2" fill="#3A9494"/>
<ellipse cx="11.5" cy="49" rx="2.5" ry="2" fill="#3A9494"/>
<circle cx="21" cy="49" r="2" fill="#3A9494"/>
<ellipse cx="30.5" cy="49" rx="2.5" ry="2" fill="#3A9494"/>
<ellipse cx="2.5" cy="58" rx="2.5" ry="2" fill="#3A9494"/>
<ellipse cx="11.5" cy="58" rx="2.5" ry="2" fill="#3A9494"/>
<circle cx="21" cy="58" r="2" fill="#3A9494"/>
<ellipse cx="30.5" cy="58" rx="2.5" ry="2" fill="#3A9494"/>
<circle cx="2.5" cy="67.5" r="2.5" fill="#3A9494"/>
<circle cx="11.5" cy="67.5" r="2.5" fill="#3A9494"/>
<ellipse cx="21" cy="67.5" rx="2" ry="2.5" fill="#3A9494"/>
<circle cx="30.5" cy="67.5" r="2.5" fill="#3A9494"/>
</svg>
