<svg width="163" height="180" viewBox="0 0 163 180" fill="none" xmlns="http://www.w3.org/2000/svg">
<ellipse cx="45.0327" cy="4.20561" rx="4.36916" ry="4.20561" fill="#3A9494"/>
<ellipse cx="61.6355" cy="4.20561" rx="3.49533" ry="4.20561" fill="#3A9494"/>
<ellipse cx="77.3645" cy="4.20561" rx="3.49533" ry="4.20561" fill="#3A9494"/>
<ellipse cx="93.9673" cy="4.20561" rx="4.36916" ry="4.20561" fill="#3A9494"/>
<ellipse cx="45.0327" cy="19.3457" rx="4.36916" ry="4.20561" fill="#3A9494"/>
<ellipse cx="61.6355" cy="19.3457" rx="3.49533" ry="4.20561" fill="#3A9494"/>
<ellipse cx="77.3645" cy="19.3457" rx="3.49533" ry="4.20561" fill="#3A9494"/>
<ellipse cx="93.9673" cy="19.3457" rx="4.36916" ry="4.20561" fill="#3A9494"/>
<ellipse cx="45.0327" cy="35.3271" rx="4.36916" ry="3.36449" fill="#3A9494"/>
<ellipse cx="61.6355" cy="35.3271" rx="3.49533" ry="3.36449" fill="#3A9494"/>
<ellipse cx="77.3645" cy="35.3271" rx="3.49533" ry="3.36449" fill="#3A9494"/>
<ellipse cx="93.9673" cy="35.3271" rx="4.36916" ry="3.36449" fill="#3A9494"/>
<ellipse cx="45.0327" cy="51.3084" rx="4.36916" ry="4.20561" fill="#3A9494"/>
<ellipse cx="61.6355" cy="51.3084" rx="3.49533" ry="4.20561" fill="#3A9494"/>
<ellipse cx="77.3645" cy="51.3084" rx="3.49533" ry="4.20561" fill="#3A9494"/>
<ellipse cx="93.9673" cy="51.3084" rx="4.36916" ry="4.20561" fill="#3A9494"/>
<ellipse cx="45.0327" cy="66.4486" rx="4.36916" ry="4.20561" fill="#3A9494"/>
<ellipse cx="61.6355" cy="66.4486" rx="3.49533" ry="4.20561" fill="#3A9494"/>
<ellipse cx="77.3645" cy="66.4486" rx="3.49533" ry="4.20561" fill="#3A9494"/>
<ellipse cx="93.9673" cy="66.4486" rx="4.36916" ry="4.20561" fill="#3A9494"/>
<ellipse cx="45.0327" cy="82.4299" rx="4.36916" ry="3.36449" fill="#3A9494"/>
<ellipse cx="61.6355" cy="82.4299" rx="3.49533" ry="3.36449" fill="#3A9494"/>
<ellipse cx="77.3645" cy="82.4299" rx="3.49533" ry="3.36449" fill="#3A9494"/>
<ellipse cx="93.9673" cy="82.4299" rx="4.36916" ry="3.36449" fill="#3A9494"/>
<ellipse cx="45.0327" cy="97.5701" rx="4.36916" ry="3.36449" fill="#3A9494"/>
<ellipse cx="61.6355" cy="97.5701" rx="3.49533" ry="3.36449" fill="#3A9494"/>
<ellipse cx="77.3645" cy="97.5701" rx="3.49533" ry="3.36449" fill="#3A9494"/>
<ellipse cx="93.9673" cy="97.5701" rx="4.36916" ry="3.36449" fill="#3A9494"/>
<ellipse cx="45.0327" cy="113.551" rx="4.36916" ry="4.20561" fill="#3A9494"/>
<ellipse cx="61.6355" cy="113.551" rx="3.49533" ry="4.20561" fill="#3A9494"/>
<ellipse cx="77.3645" cy="113.551" rx="3.49533" ry="4.20561" fill="#3A9494"/>
<ellipse cx="93.9673" cy="113.551" rx="4.36916" ry="4.20561" fill="#3A9494"/>
<ellipse cx="45.0327" cy="128.692" rx="4.36916" ry="4.20561" fill="#3A9494"/>
<ellipse cx="61.6355" cy="128.692" rx="3.49533" ry="4.20561" fill="#3A9494"/>
<ellipse cx="77.3645" cy="128.692" rx="3.49533" ry="4.20561" fill="#3A9494"/>
<ellipse cx="93.9673" cy="128.692" rx="4.36916" ry="4.20561" fill="#3A9494"/>
<ellipse cx="45.0327" cy="144.673" rx="4.36916" ry="3.36449" fill="#3A9494"/>
<ellipse cx="61.6355" cy="144.673" rx="3.49533" ry="3.36449" fill="#3A9494"/>
<ellipse cx="77.3645" cy="144.673" rx="3.49533" ry="3.36449" fill="#3A9494"/>
<ellipse cx="93.9673" cy="144.673" rx="4.36916" ry="3.36449" fill="#3A9494"/>
<ellipse cx="45.0327" cy="160.654" rx="4.36916" ry="4.20561" fill="#3A9494"/>
<ellipse cx="61.6355" cy="160.654" rx="3.49533" ry="4.20561" fill="#3A9494"/>
<ellipse cx="77.3645" cy="160.654" rx="3.49533" ry="4.20561" fill="#3A9494"/>
<ellipse cx="93.9673" cy="160.654" rx="4.36916" ry="4.20561" fill="#3A9494"/>
<ellipse cx="45.0327" cy="175.794" rx="4.36916" ry="4.20561" fill="#3A9494"/>
<ellipse cx="61.6355" cy="175.794" rx="3.49533" ry="4.20561" fill="#3A9494"/>
<ellipse cx="77.3645" cy="175.794" rx="3.49533" ry="4.20561" fill="#3A9494"/>
<ellipse cx="93.9673" cy="175.794" rx="4.36916" ry="4.20561" fill="#3A9494"/>
<ellipse cx="109.696" cy="66.4486" rx="4.36916" ry="4.20561" fill="#3A9494"/>
<ellipse cx="126.299" cy="66.4486" rx="3.49533" ry="4.20561" fill="#3A9494"/>
<ellipse cx="142.902" cy="66.4486" rx="4.36916" ry="4.20561" fill="#3A9494"/>
<ellipse cx="158.631" cy="66.4486" rx="4.36916" ry="4.20561" fill="#3A9494"/>
<ellipse cx="109.696" cy="82.4299" rx="4.36916" ry="3.36449" fill="#3A9494"/>
<ellipse cx="126.299" cy="82.4299" rx="3.49533" ry="3.36449" fill="#3A9494"/>
<ellipse cx="142.902" cy="82.4299" rx="4.36916" ry="3.36449" fill="#3A9494"/>
<ellipse cx="158.631" cy="82.4299" rx="4.36916" ry="3.36449" fill="#3A9494"/>
<ellipse cx="109.696" cy="97.5701" rx="4.36916" ry="3.36449" fill="#3A9494"/>
<ellipse cx="126.299" cy="97.5701" rx="3.49533" ry="3.36449" fill="#3A9494"/>
<ellipse cx="142.902" cy="97.5701" rx="4.36916" ry="3.36449" fill="#3A9494"/>
<ellipse cx="158.631" cy="97.5701" rx="4.36916" ry="3.36449" fill="#3A9494"/>
<ellipse cx="109.696" cy="113.551" rx="4.36916" ry="4.20561" fill="#3A9494"/>
<ellipse cx="126.299" cy="113.551" rx="3.49533" ry="4.20561" fill="#3A9494"/>
<ellipse cx="142.902" cy="113.551" rx="4.36916" ry="4.20561" fill="#3A9494"/>
<ellipse cx="158.631" cy="113.551" rx="4.36916" ry="4.20561" fill="#3A9494"/>
<ellipse cx="-3.90184" cy="66.4486" rx="4.36916" ry="4.20561" fill="#3A9494"/>
<ellipse cx="12.7009" cy="66.4486" rx="3.49533" ry="4.20561" fill="#3A9494"/>
<ellipse cx="29.3037" cy="66.4486" rx="4.36916" ry="4.20561" fill="#3A9494"/>
<ellipse cx="-3.90184" cy="82.4299" rx="4.36916" ry="3.36449" fill="#3A9494"/>
<ellipse cx="12.7009" cy="82.4299" rx="3.49533" ry="3.36449" fill="#3A9494"/>
<ellipse cx="29.3037" cy="82.4299" rx="4.36916" ry="3.36449" fill="#3A9494"/>
<ellipse cx="-3.90184" cy="97.5701" rx="4.36916" ry="3.36449" fill="#3A9494"/>
<ellipse cx="12.7009" cy="97.5701" rx="3.49533" ry="3.36449" fill="#3A9494"/>
<ellipse cx="29.3037" cy="97.5701" rx="4.36916" ry="3.36449" fill="#3A9494"/>
<ellipse cx="-3.90184" cy="113.551" rx="4.36916" ry="4.20561" fill="#3A9494"/>
<ellipse cx="12.7009" cy="113.551" rx="3.49533" ry="4.20561" fill="#3A9494"/>
<ellipse cx="29.3037" cy="113.551" rx="4.36916" ry="4.20561" fill="#3A9494"/>
</svg>
