<svg width="170" height="165" viewBox="0 0 170 165" fill="none" xmlns="http://www.w3.org/2000/svg">
<ellipse cx="62.7561" cy="3.85514" rx="3.97197" ry="3.85514" fill="#3A9494"/>
<ellipse cx="77.8504" cy="3.85514" rx="3.17757" ry="3.85514" fill="#3A9494"/>
<ellipse cx="92.1493" cy="3.85514" rx="3.17757" ry="3.85514" fill="#3A9494"/>
<ellipse cx="107.243" cy="3.85514" rx="3.97197" ry="3.85514" fill="#3A9494"/>
<ellipse cx="62.7561" cy="17.7336" rx="3.97197" ry="3.85514" fill="#3A9494"/>
<ellipse cx="77.8504" cy="17.7336" rx="3.17757" ry="3.85514" fill="#3A9494"/>
<ellipse cx="92.1493" cy="17.7336" rx="3.17757" ry="3.85514" fill="#3A9494"/>
<ellipse cx="107.243" cy="17.7336" rx="3.97197" ry="3.85514" fill="#3A9494"/>
<ellipse cx="62.7561" cy="32.3832" rx="3.97197" ry="3.08411" fill="#3A9494"/>
<ellipse cx="77.8504" cy="32.3832" rx="3.17757" ry="3.08411" fill="#3A9494"/>
<ellipse cx="92.1493" cy="32.3832" rx="3.17757" ry="3.08411" fill="#3A9494"/>
<ellipse cx="107.243" cy="32.3832" rx="3.97197" ry="3.08411" fill="#3A9494"/>
<ellipse cx="62.7561" cy="47.0327" rx="3.97197" ry="3.85514" fill="#3A9494"/>
<ellipse cx="77.8504" cy="47.0327" rx="3.17757" ry="3.85514" fill="#3A9494"/>
<ellipse cx="92.1493" cy="47.0327" rx="3.17757" ry="3.85514" fill="#3A9494"/>
<ellipse cx="107.243" cy="47.0327" rx="3.97197" ry="3.85514" fill="#3A9494"/>
<ellipse cx="62.7561" cy="60.9112" rx="3.97197" ry="3.85514" fill="#3A9494"/>
<ellipse cx="77.8504" cy="60.9112" rx="3.17757" ry="3.85514" fill="#3A9494"/>
<ellipse cx="92.1493" cy="60.9112" rx="3.17757" ry="3.85514" fill="#3A9494"/>
<ellipse cx="107.243" cy="60.9112" rx="3.97197" ry="3.85514" fill="#3A9494"/>
<ellipse cx="62.7561" cy="75.5607" rx="3.97197" ry="3.08411" fill="#3A9494"/>
<ellipse cx="77.8504" cy="75.5607" rx="3.17757" ry="3.08411" fill="#3A9494"/>
<ellipse cx="92.1493" cy="75.5607" rx="3.17757" ry="3.08411" fill="#3A9494"/>
<ellipse cx="107.243" cy="75.5607" rx="3.97197" ry="3.08411" fill="#3A9494"/>
<ellipse cx="62.7561" cy="89.4392" rx="3.97197" ry="3.08411" fill="#3A9494"/>
<ellipse cx="77.8504" cy="89.4392" rx="3.17757" ry="3.08411" fill="#3A9494"/>
<ellipse cx="92.1493" cy="89.4392" rx="3.17757" ry="3.08411" fill="#3A9494"/>
<ellipse cx="107.243" cy="89.4392" rx="3.97197" ry="3.08411" fill="#3A9494"/>
<ellipse cx="62.7561" cy="104.089" rx="3.97197" ry="3.85514" fill="#3A9494"/>
<ellipse cx="77.8504" cy="104.089" rx="3.17757" ry="3.85514" fill="#3A9494"/>
<ellipse cx="92.1493" cy="104.089" rx="3.17757" ry="3.85514" fill="#3A9494"/>
<ellipse cx="107.243" cy="104.089" rx="3.97197" ry="3.85514" fill="#3A9494"/>
<ellipse cx="62.7561" cy="117.967" rx="3.97197" ry="3.85514" fill="#3A9494"/>
<ellipse cx="77.8504" cy="117.967" rx="3.17757" ry="3.85514" fill="#3A9494"/>
<ellipse cx="92.1493" cy="117.967" rx="3.17757" ry="3.85514" fill="#3A9494"/>
<ellipse cx="107.243" cy="117.967" rx="3.97197" ry="3.85514" fill="#3A9494"/>
<ellipse cx="62.7561" cy="132.617" rx="3.97197" ry="3.08411" fill="#3A9494"/>
<ellipse cx="77.8504" cy="132.617" rx="3.17757" ry="3.08411" fill="#3A9494"/>
<ellipse cx="92.1493" cy="132.617" rx="3.17757" ry="3.08411" fill="#3A9494"/>
<ellipse cx="107.243" cy="132.617" rx="3.97197" ry="3.08411" fill="#3A9494"/>
<ellipse cx="62.7561" cy="147.266" rx="3.97197" ry="3.85514" fill="#3A9494"/>
<ellipse cx="77.8504" cy="147.266" rx="3.17757" ry="3.85514" fill="#3A9494"/>
<ellipse cx="92.1493" cy="147.266" rx="3.17757" ry="3.85514" fill="#3A9494"/>
<ellipse cx="107.243" cy="147.266" rx="3.97197" ry="3.85514" fill="#3A9494"/>
<ellipse cx="62.7561" cy="161.145" rx="3.97197" ry="3.85514" fill="#3A9494"/>
<ellipse cx="77.8504" cy="161.145" rx="3.17757" ry="3.85514" fill="#3A9494"/>
<ellipse cx="92.1493" cy="161.145" rx="3.17757" ry="3.85514" fill="#3A9494"/>
<ellipse cx="107.243" cy="161.145" rx="3.97197" ry="3.85514" fill="#3A9494"/>
<ellipse cx="121.542" cy="60.9112" rx="3.97197" ry="3.85514" fill="#3A9494"/>
<ellipse cx="136.635" cy="60.9112" rx="3.17757" ry="3.85514" fill="#3A9494"/>
<ellipse cx="151.731" cy="60.9112" rx="3.97197" ry="3.85514" fill="#3A9494"/>
<ellipse cx="166.028" cy="60.9112" rx="3.97197" ry="3.85514" fill="#3A9494"/>
<ellipse cx="121.542" cy="75.5607" rx="3.97197" ry="3.08411" fill="#3A9494"/>
<ellipse cx="136.635" cy="75.5607" rx="3.17757" ry="3.08411" fill="#3A9494"/>
<ellipse cx="151.731" cy="75.5607" rx="3.97197" ry="3.08411" fill="#3A9494"/>
<ellipse cx="166.028" cy="75.5607" rx="3.97197" ry="3.08411" fill="#3A9494"/>
<ellipse cx="121.542" cy="89.4392" rx="3.97197" ry="3.08411" fill="#3A9494"/>
<ellipse cx="136.635" cy="89.4392" rx="3.17757" ry="3.08411" fill="#3A9494"/>
<ellipse cx="151.731" cy="89.4392" rx="3.97197" ry="3.08411" fill="#3A9494"/>
<ellipse cx="166.028" cy="89.4392" rx="3.97197" ry="3.08411" fill="#3A9494"/>
<ellipse cx="121.542" cy="104.089" rx="3.97197" ry="3.85514" fill="#3A9494"/>
<ellipse cx="136.635" cy="104.089" rx="3.17757" ry="3.85514" fill="#3A9494"/>
<ellipse cx="151.731" cy="104.089" rx="3.97197" ry="3.85514" fill="#3A9494"/>
<ellipse cx="166.028" cy="104.089" rx="3.97197" ry="3.85514" fill="#3A9494"/>
<ellipse cx="3.97197" cy="60.9112" rx="3.97197" ry="3.85514" fill="#3A9494"/>
<ellipse cx="18.2708" cy="60.9112" rx="3.97197" ry="3.85514" fill="#3A9494"/>
<ellipse cx="33.3651" cy="60.9112" rx="3.17757" ry="3.85514" fill="#3A9494"/>
<ellipse cx="48.4573" cy="60.9112" rx="3.97197" ry="3.85514" fill="#3A9494"/>
<ellipse cx="3.97197" cy="75.5607" rx="3.97197" ry="3.08411" fill="#3A9494"/>
<ellipse cx="18.2708" cy="75.5607" rx="3.97197" ry="3.08411" fill="#3A9494"/>
<ellipse cx="33.3651" cy="75.5607" rx="3.17757" ry="3.08411" fill="#3A9494"/>
<ellipse cx="48.4573" cy="75.5607" rx="3.97197" ry="3.08411" fill="#3A9494"/>
<ellipse cx="3.97197" cy="89.4392" rx="3.97197" ry="3.08411" fill="#3A9494"/>
<ellipse cx="18.2708" cy="89.4392" rx="3.97197" ry="3.08411" fill="#3A9494"/>
<ellipse cx="33.3651" cy="89.4392" rx="3.17757" ry="3.08411" fill="#3A9494"/>
<ellipse cx="48.4573" cy="89.4392" rx="3.97197" ry="3.08411" fill="#3A9494"/>
<ellipse cx="3.97197" cy="104.089" rx="3.97197" ry="3.85514" fill="#3A9494"/>
<ellipse cx="18.2708" cy="104.089" rx="3.97197" ry="3.85514" fill="#3A9494"/>
<ellipse cx="33.3651" cy="104.089" rx="3.17757" ry="3.85514" fill="#3A9494"/>
<ellipse cx="48.4573" cy="104.089" rx="3.97197" ry="3.85514" fill="#3A9494"/>
</svg>
