<svg width="167" height="165" viewBox="0 0 167 165" fill="none" xmlns="http://www.w3.org/2000/svg">
<ellipse cx="61.6496" cy="3.85514" rx="3.90187" ry="3.85514" fill="#3A9494"/>
<ellipse cx="76.4767" cy="3.85514" rx="3.1215" ry="3.85514" fill="#3A9494"/>
<ellipse cx="90.5234" cy="3.85514" rx="3.1215" ry="3.85514" fill="#3A9494"/>
<ellipse cx="105.35" cy="3.85514" rx="3.90187" ry="3.85514" fill="#3A9494"/>
<ellipse cx="61.6496" cy="17.7336" rx="3.90187" ry="3.85514" fill="#3A9494"/>
<ellipse cx="76.4767" cy="17.7336" rx="3.1215" ry="3.85514" fill="#3A9494"/>
<ellipse cx="90.5234" cy="17.7336" rx="3.1215" ry="3.85514" fill="#3A9494"/>
<ellipse cx="105.35" cy="17.7336" rx="3.90187" ry="3.85514" fill="#3A9494"/>
<ellipse cx="61.6496" cy="32.3832" rx="3.90187" ry="3.08411" fill="#3A9494"/>
<ellipse cx="76.4767" cy="32.3832" rx="3.1215" ry="3.08411" fill="#3A9494"/>
<ellipse cx="90.5234" cy="32.3832" rx="3.1215" ry="3.08411" fill="#3A9494"/>
<ellipse cx="105.35" cy="32.3832" rx="3.90187" ry="3.08411" fill="#3A9494"/>
<ellipse cx="61.6496" cy="47.0326" rx="3.90187" ry="3.85514" fill="#3A9494"/>
<ellipse cx="76.4767" cy="47.0326" rx="3.1215" ry="3.85514" fill="#3A9494"/>
<ellipse cx="90.5234" cy="47.0326" rx="3.1215" ry="3.85514" fill="#3A9494"/>
<ellipse cx="105.35" cy="47.0326" rx="3.90187" ry="3.85514" fill="#3A9494"/>
<ellipse cx="61.6496" cy="60.911" rx="3.90187" ry="3.85514" fill="#3A9494"/>
<ellipse cx="76.4767" cy="60.911" rx="3.1215" ry="3.85514" fill="#3A9494"/>
<ellipse cx="90.5234" cy="60.911" rx="3.1215" ry="3.85514" fill="#3A9494"/>
<ellipse cx="105.35" cy="60.911" rx="3.90187" ry="3.85514" fill="#3A9494"/>
<ellipse cx="61.6496" cy="75.5607" rx="3.90187" ry="3.08411" fill="#3A9494"/>
<ellipse cx="76.4767" cy="75.5607" rx="3.1215" ry="3.08411" fill="#3A9494"/>
<ellipse cx="90.5234" cy="75.5607" rx="3.1215" ry="3.08411" fill="#3A9494"/>
<ellipse cx="105.35" cy="75.5607" rx="3.90187" ry="3.08411" fill="#3A9494"/>
<ellipse cx="61.6496" cy="89.4391" rx="3.90187" ry="3.08411" fill="#3A9494"/>
<ellipse cx="76.4767" cy="89.4391" rx="3.1215" ry="3.08411" fill="#3A9494"/>
<ellipse cx="90.5234" cy="89.4391" rx="3.1215" ry="3.08411" fill="#3A9494"/>
<ellipse cx="105.35" cy="89.4391" rx="3.90187" ry="3.08411" fill="#3A9494"/>
<ellipse cx="61.6496" cy="104.089" rx="3.90187" ry="3.85514" fill="#3A9494"/>
<ellipse cx="76.4767" cy="104.089" rx="3.1215" ry="3.85514" fill="#3A9494"/>
<ellipse cx="90.5234" cy="104.089" rx="3.1215" ry="3.85514" fill="#3A9494"/>
<ellipse cx="105.35" cy="104.089" rx="3.90187" ry="3.85514" fill="#3A9494"/>
<ellipse cx="61.6496" cy="117.967" rx="3.90187" ry="3.85514" fill="#3A9494"/>
<ellipse cx="76.4767" cy="117.967" rx="3.1215" ry="3.85514" fill="#3A9494"/>
<ellipse cx="90.5234" cy="117.967" rx="3.1215" ry="3.85514" fill="#3A9494"/>
<ellipse cx="105.35" cy="117.967" rx="3.90187" ry="3.85514" fill="#3A9494"/>
<ellipse cx="61.6496" cy="132.617" rx="3.90187" ry="3.08411" fill="#3A9494"/>
<ellipse cx="76.4767" cy="132.617" rx="3.1215" ry="3.08411" fill="#3A9494"/>
<ellipse cx="90.5234" cy="132.617" rx="3.1215" ry="3.08411" fill="#3A9494"/>
<ellipse cx="105.35" cy="132.617" rx="3.90187" ry="3.08411" fill="#3A9494"/>
<ellipse cx="61.6496" cy="147.266" rx="3.90187" ry="3.85514" fill="#3A9494"/>
<ellipse cx="76.4767" cy="147.266" rx="3.1215" ry="3.85514" fill="#3A9494"/>
<ellipse cx="90.5234" cy="147.266" rx="3.1215" ry="3.85514" fill="#3A9494"/>
<ellipse cx="105.35" cy="147.266" rx="3.90187" ry="3.85514" fill="#3A9494"/>
<ellipse cx="61.6496" cy="161.145" rx="3.90187" ry="3.85514" fill="#3A9494"/>
<ellipse cx="76.4767" cy="161.145" rx="3.1215" ry="3.85514" fill="#3A9494"/>
<ellipse cx="90.5234" cy="161.145" rx="3.1215" ry="3.85514" fill="#3A9494"/>
<ellipse cx="105.35" cy="161.145" rx="3.90187" ry="3.85514" fill="#3A9494"/>
<ellipse cx="119.397" cy="60.911" rx="3.90187" ry="3.85514" fill="#3A9494"/>
<ellipse cx="134.224" cy="60.911" rx="3.1215" ry="3.85514" fill="#3A9494"/>
<ellipse cx="149.051" cy="60.911" rx="3.90187" ry="3.85514" fill="#3A9494"/>
<ellipse cx="163.098" cy="60.911" rx="3.90187" ry="3.85514" fill="#3A9494"/>
<ellipse cx="119.397" cy="75.5607" rx="3.90187" ry="3.08411" fill="#3A9494"/>
<ellipse cx="134.224" cy="75.5607" rx="3.1215" ry="3.08411" fill="#3A9494"/>
<ellipse cx="149.051" cy="75.5607" rx="3.90187" ry="3.08411" fill="#3A9494"/>
<ellipse cx="163.098" cy="75.5607" rx="3.90187" ry="3.08411" fill="#3A9494"/>
<ellipse cx="119.397" cy="89.4391" rx="3.90187" ry="3.08411" fill="#3A9494"/>
<ellipse cx="134.224" cy="89.4391" rx="3.1215" ry="3.08411" fill="#3A9494"/>
<ellipse cx="149.051" cy="89.4391" rx="3.90187" ry="3.08411" fill="#3A9494"/>
<ellipse cx="163.098" cy="89.4391" rx="3.90187" ry="3.08411" fill="#3A9494"/>
<ellipse cx="119.397" cy="104.089" rx="3.90187" ry="3.85514" fill="#3A9494"/>
<ellipse cx="134.224" cy="104.089" rx="3.1215" ry="3.85514" fill="#3A9494"/>
<ellipse cx="149.051" cy="104.089" rx="3.90187" ry="3.85514" fill="#3A9494"/>
<ellipse cx="163.098" cy="104.089" rx="3.90187" ry="3.85514" fill="#3A9494"/>
<ellipse cx="3.90187" cy="60.911" rx="3.90187" ry="3.85514" fill="#3A9494"/>
<ellipse cx="17.9486" cy="60.911" rx="3.90187" ry="3.85514" fill="#3A9494"/>
<ellipse cx="32.7757" cy="60.911" rx="3.1215" ry="3.85514" fill="#3A9494"/>
<ellipse cx="47.6028" cy="60.911" rx="3.90187" ry="3.85514" fill="#3A9494"/>
<ellipse cx="3.90187" cy="75.5607" rx="3.90187" ry="3.08411" fill="#3A9494"/>
<ellipse cx="17.9486" cy="75.5607" rx="3.90187" ry="3.08411" fill="#3A9494"/>
<ellipse cx="32.7757" cy="75.5607" rx="3.1215" ry="3.08411" fill="#3A9494"/>
<ellipse cx="47.6028" cy="75.5607" rx="3.90187" ry="3.08411" fill="#3A9494"/>
<ellipse cx="3.90187" cy="89.4391" rx="3.90187" ry="3.08411" fill="#3A9494"/>
<ellipse cx="17.9486" cy="89.4391" rx="3.90187" ry="3.08411" fill="#3A9494"/>
<ellipse cx="32.7757" cy="89.4391" rx="3.1215" ry="3.08411" fill="#3A9494"/>
<ellipse cx="47.6028" cy="89.4391" rx="3.90187" ry="3.08411" fill="#3A9494"/>
<ellipse cx="3.90187" cy="104.089" rx="3.90187" ry="3.85514" fill="#3A9494"/>
<ellipse cx="17.9486" cy="104.089" rx="3.90187" ry="3.85514" fill="#3A9494"/>
<ellipse cx="32.7757" cy="104.089" rx="3.1215" ry="3.85514" fill="#3A9494"/>
<ellipse cx="47.6028" cy="104.089" rx="3.90187" ry="3.85514" fill="#3A9494"/>
</svg>
