<svg width="103" height="94" viewBox="0 0 103 94" fill="none" xmlns="http://www.w3.org/2000/svg">
<path d="M72.9583 35.25C72.9583 50.4075 58.5383 62.6667 40.7708 62.6667L36.7796 67.0533L34.4192 69.6385C32.4021 71.8318 28.5395 71.3616 27.2091 68.7375L21.4583 57.1832C13.6475 52.1699 8.58331 44.2192 8.58331 35.25C8.58331 20.0925 23.0033 7.83334 40.7708 7.83334C53.7316 7.83334 64.9329 14.3742 69.9542 23.7742C71.8854 27.26 72.9583 31.1375 72.9583 35.25Z" stroke="white" stroke-width="4" stroke-linecap="round" stroke-linejoin="round"/>
<path d="M94.4167 50.3683C94.4167 59.3374 89.3525 67.2884 81.5417 72.3018L75.7908 83.8557C74.4604 86.4799 70.5979 86.9892 68.5808 84.7567L62.2292 77.7849C51.8433 77.7849 42.5734 73.5942 36.7796 67.0533L40.7708 62.6667C58.5383 62.6667 72.9583 50.4075 72.9583 35.25C72.9583 31.1375 71.8854 27.26 69.9542 23.7742C83.9879 26.7117 94.4167 37.5216 94.4167 50.3683Z" stroke="white" stroke-width="4" stroke-linecap="round" stroke-linejoin="round"/>
<path d="M30.0417 35.25H51.5" stroke="white" stroke-width="4" stroke-linecap="round" stroke-linejoin="round"/>
</svg>
