<svg width="100" height="80" viewBox="0 0 100 80" fill="none" xmlns="http://www.w3.org/2000/svg">
<path d="M70.8333 70H29.1667C12.5 70 8.33334 66.6667 8.33334 53.3333V26.6667C8.33334 13.3333 12.5 10 29.1667 10H70.8333C87.5 10 91.6667 13.3333 91.6667 26.6667V53.3333C91.6667 66.6667 87.5 70 70.8333 70Z" stroke="white" stroke-width="4" stroke-linecap="round" stroke-linejoin="round"/>
<path d="M58.3333 26.6667H79.1667" stroke="white" stroke-width="4" stroke-linecap="round" stroke-linejoin="round"/>
<path d="M62.5 40H79.1667" stroke="white" stroke-width="4" stroke-linecap="round" stroke-linejoin="round"/>
<path d="M70.8333 53.3333H79.1667" stroke="white" stroke-width="4" stroke-linecap="round" stroke-linejoin="round"/>
<path d="M35.4167 37.6333C39.5818 37.6333 42.9583 34.9321 42.9583 31.6C42.9583 28.2679 39.5818 25.5667 35.4167 25.5667C31.2515 25.5667 27.875 28.2679 27.875 31.6C27.875 34.9321 31.2515 37.6333 35.4167 37.6333Z" stroke="white" stroke-width="4" stroke-linecap="round" stroke-linejoin="round"/>
<path d="M50 54.4333C49.4167 49.6 44.625 45.8 38.5833 45.3667C36.5 45.2 34.375 45.2 32.25 45.3667C26.2083 45.8333 21.4167 49.6 20.8333 54.4333" stroke="white" stroke-width="4" stroke-linecap="round" stroke-linejoin="round"/>
</svg>
