<svg width="100" height="90" viewBox="0 0 100 90" fill="none" xmlns="http://www.w3.org/2000/svg">
<path d="M38.1667 40.7625C37.75 40.725 37.25 40.725 36.7917 40.7625C26.875 40.4625 19 33.15 19 24.15C19 14.9625 27.25 7.5 37.5 7.5C47.7083 7.5 56 14.9625 56 24.15C55.9583 33.15 48.0833 40.4625 38.1667 40.7625Z" stroke="white" stroke-width="4" stroke-linecap="round" stroke-linejoin="round"/>
<path d="M68.375 15C76.4584 15 82.9584 20.8875 82.9584 28.125C82.9584 35.2125 76.7084 40.9875 68.9167 41.25C68.5834 41.2125 68.2084 41.2125 67.8334 41.25" stroke="white" stroke-width="4" stroke-linecap="round" stroke-linejoin="round"/>
<path d="M17.3334 54.6C7.25004 60.675 7.25004 70.575 17.3334 76.6125C28.7917 83.5125 47.5834 83.5125 59.0417 76.6125C69.125 70.5375 69.125 60.6375 59.0417 54.6C47.625 47.7375 28.8334 47.7375 17.3334 54.6Z" stroke="white" stroke-width="4" stroke-linecap="round" stroke-linejoin="round"/>
<path d="M76.4166 75C79.4166 74.4375 82.25 73.35 84.5833 71.7375C91.0833 67.35 91.0833 60.1125 84.5833 55.725C82.2916 54.15 79.5 53.1 76.5416 52.5" stroke="white" stroke-width="4" stroke-linecap="round" stroke-linejoin="round"/>
</svg>
