<svg width="16" height="16" viewBox="0 0 16 16" fill="none" xmlns="http://www.w3.org/2000/svg">
<path d="M10.6666 2V4.66667M5.33329 2V4.66667M2.66663 7.33333H13.3333M5.33329 9.33333V12M7.99996 9.33333V12M10.6666 9.33333V12M2.66663 4.66667C2.66663 4.31304 2.8071 3.97391 3.05715 3.72386C3.3072 3.47381 3.64634 3.33333 3.99996 3.33333H12C12.3536 3.33333 12.6927 3.47381 12.9428 3.72386C13.1928 3.97391 13.3333 4.31304 13.3333 4.66667V12.6667C13.3333 13.0203 13.1928 13.3594 12.9428 13.6095C12.6927 13.8595 12.3536 14 12 14H3.99996C3.64634 14 3.3072 13.8595 3.05715 13.6095C2.8071 13.3594 2.66663 13.0203 2.66663 12.6667V4.66667Z" stroke="#919191" stroke-linecap="round" stroke-linejoin="round"/>
</svg>
