<svg width="72" height="92" viewBox="0 0 72 92" fill="none" xmlns="http://www.w3.org/2000/svg">
<path d="M21.5003 12.1667H11.8337C9.2699 12.1667 6.81114 13.1851 4.99829 14.998C3.18544 16.8108 2.16699 19.2696 2.16699 21.8333L2.16699 79.8333C2.16699 82.3971 3.18544 84.8558 4.99829 86.6687C6.81114 88.4816 9.2699 89.5 11.8337 89.5H60.167C62.7307 89.5 65.1895 88.4816 67.0024 86.6687C68.8152 84.8558 69.8337 82.3971 69.8337 79.8333V21.8333C69.8337 19.2696 68.8152 16.8108 67.0024 14.998C65.1895 13.1851 62.7307 12.1667 60.167 12.1667H50.5003M21.5003 12.1667C21.5003 9.60291 22.5188 7.14415 24.3316 5.3313C26.1445 3.51845 28.6032 2.5 31.167 2.5L40.8337 2.5C43.3974 2.5 45.8562 3.51845 47.669 5.3313C49.4819 7.14415 50.5003 9.60291 50.5003 12.1667M21.5003 12.1667C21.5003 14.7304 22.5188 17.1892 24.3316 19.002C26.1445 20.8149 28.6032 21.8333 31.167 21.8333H40.8337C43.3974 21.8333 45.8562 20.8149 47.669 19.002C49.4819 17.1892 50.5003 14.7304 50.5003 12.1667M26.3337 55.6667H45.667M36.0003 46V65.3333" stroke="white" stroke-width="4" stroke-linecap="round" stroke-linejoin="round"/>
</svg>
